HIERARCHY
ROOT hips
{
  OFFSET 0 9.313263304106702 1.2146308026317778
  CHANNELS 6 Xposition Yposition Zposition Yrotation Xrotation Zrotation
  JOINT spine
  {
    OFFSET -6.402521e-31 0.5173342420023708 0
    CHANNELS 3 Yrotation Xrotation Zrotation
    JOINT chest
    {
      OFFSET 0 1.130544299341115 0
      CHANNELS 3 Yrotation Xrotation Zrotation
      JOINT upperChest
      {
        OFFSET 0 1.0863555061129995 0
        CHANNELS 3 Yrotation Xrotation Zrotation
        JOINT neck
        {
          OFFSET 0 1.3773706506454462 0
          CHANNELS 3 Yrotation Xrotation Zrotation
          JOINT head
          {
            OFFSET 0 0.7374408940073979 0
            CHANNELS 3 Yrotation Xrotation Zrotation
            JOINT leftEye
            {
              OFFSET 0.25066580148932727 0.6408406698778757 0.15963719178883284
              CHANNELS 3 Yrotation Xrotation Zrotation
              End Site
              {
                OFFSET 0.25066580148932727 0.6408406698778757 0.15963719178883284
              }
            }
            JOINT rightEye
            {
              OFFSET -0.25066576739704244 0.6408406384191823 0.15963727561643756
              CHANNELS 3 Yrotation Xrotation Zrotation
              End Site
              {
                OFFSET -0.25066576739704244 0.6408406384191823 0.15963727561643756
              }
            }
          }
        }
        JOINT leftShoulder
        {
          OFFSET 0.3761817444281191 1.0539491987447769 0
          CHANNELS 3 Yrotation Xrotation Zrotation
          JOINT leftUpperArm
          {
            OFFSET 0.8702844380000002 0 0
            CHANNELS 3 Yrotation Xrotation Zrotation
            JOINT leftLowerArm
            {
              OFFSET 2.198527310000323 0 0
              CHANNELS 3 Yrotation Xrotation Zrotation
              JOINT leftHand
              {
                OFFSET 2.146852313968281 0 0
                CHANNELS 3 Yrotation Xrotation Zrotation
                JOINT leftIndexProximal
                {
                  OFFSET 0.6585177834681599 0.07380250427007962 0.18382213159631788
                  CHANNELS 3 Yrotation Xrotation Zrotation
                  JOINT leftIndexIntermediate
                  {
                    OFFSET 0.3323021288626682 -0.009606893929485771 -0.012820872253340998
                    CHANNELS 3 Yrotation Xrotation Zrotation
                    JOINT leftIndexDistal
                    {
                      OFFSET 0.2045908926985518 -0.0071133989147997845 -0.006828784783599051
                      CHANNELS 3 Yrotation Xrotation Zrotation
                      End Site
                      {
                        OFFSET 0.2045908926985518 -0.0071133989147997845 -0.006828784783599051
                      }
                    }
                  }
                }
                JOINT leftLittleProximal
                {
                  OFFSET 0.6110054258835662 0.07380246363125398 -0.29175655876064077
                  CHANNELS 3 Yrotation Xrotation Zrotation
                  JOINT leftLittleIntermediate
                  {
                    OFFSET 0.3144281999999998 -2.5124724523095665e-9 1.8658118799974588e-7
                    CHANNELS 3 Yrotation Xrotation Zrotation
                    JOINT leftLittleDistal
                    {
                      OFFSET 0.18116185580251631 0.002815456192251098 0.0034826415518049436
                      CHANNELS 3 Yrotation Xrotation Zrotation
                      End Site
                      {
                        OFFSET 0.18116185580251631 0.002815456192251098 0.0034826415518049436
                      }
                    }
                  }
                }
                JOINT leftMiddleProximal
                {
                  OFFSET 0.6637478005691111 0.07380246480054087 0.02046981859247815
                  CHANNELS 3 Yrotation Xrotation Zrotation
                  JOINT leftMiddleIntermediate
                  {
                    OFFSET 0.3705733999999994 -2.9611069152224445e-9 9.35054791928458e-8
                    CHANNELS 3 Yrotation Xrotation Zrotation
                    JOINT leftMiddleDistal
                    {
                      OFFSET 0.22861063500000056 -1.82673876025774e-9 -1.6740782024515788e-7
                      CHANNELS 3 Yrotation Xrotation Zrotation
                      End Site
                      {
                        OFFSET 0.22861063500000056 -1.82673876025774e-9 -1.6740782024515788e-7
                      }
                    }
                  }
                }
                JOINT leftRingProximal
                {
                  OFFSET 0.6561845547265777 0.07380246406440083 -0.13588087571513918
                  CHANNELS 3 Yrotation Xrotation Zrotation
                  JOINT leftRingIntermediate
                  {
                    OFFSET 0.3437531000000005 -2.746796123886952e-9 1.4935781944558357e-7
                    CHANNELS 3 Yrotation Xrotation Zrotation
                    JOINT leftRingDistal
                    {
                      OFFSET 0.1983118991198174 -0.002467117924596085 -0.004538141969590015
                      CHANNELS 3 Yrotation Xrotation Zrotation
                      End Site
                      {
                        OFFSET 0.1983118991198174 -0.002467117924596085 -0.004538141969590015
                      }
                    }
                  }
                }
                JOINT leftThumbProximal
                {
                  OFFSET 0.09767004258864787 -0.14930060425447422 -0.07008212897521154
                  CHANNELS 3 Yrotation Xrotation Zrotation
                  JOINT leftThumbIntermediate
                  {
                    OFFSET 0.36682123028154767 -0.015768465060082004 0.28693641268151077
                    CHANNELS 3 Yrotation Xrotation Zrotation
                    JOINT leftThumbDistal
                    {
                      OFFSET 0.21091084272403915 -0.016756648201192714 0.1933767059105508
                      CHANNELS 3 Yrotation Xrotation Zrotation
                      End Site
                      {
                        OFFSET 0.21091084272403915 -0.016756648201192714 0.1933767059105508
                      }
                    }
                  }
                }
              }
            }
          }
        }
        JOINT rightShoulder
        {
          OFFSET -0.37618174442811925 1.0539491987447769 0
          CHANNELS 3 Yrotation Xrotation Zrotation
          JOINT rightUpperArm
          {
            OFFSET -0.870284438 0 0
            CHANNELS 3 Yrotation Xrotation Zrotation
            JOINT rightLowerArm
            {
              OFFSET -2.1985273100003235 0 0
              CHANNELS 3 Yrotation Xrotation Zrotation
              JOINT rightHand
              {
                OFFSET -2.1468523139682802 0 0
                CHANNELS 3 Yrotation Xrotation Zrotation
                JOINT rightIndexProximal
                {
                  OFFSET -0.6585177834681599 0.07380250427007962 0.18382213159631788
                  CHANNELS 3 Yrotation Xrotation Zrotation
                  JOINT rightIndexIntermediate
                  {
                    OFFSET -0.3323021288626682 -0.009606893929485771 -0.012820872253340998
                    CHANNELS 3 Yrotation Xrotation Zrotation
                    JOINT rightIndexDistal
                    {
                      OFFSET -0.2045908926985518 -0.0071133989147997845 -0.006828784783599051
                      CHANNELS 3 Yrotation Xrotation Zrotation
                      End Site
                      {
                        OFFSET -0.2045908926985518 -0.0071133989147997845 -0.006828784783599051
                      }
                    }
                  }
                }
                JOINT rightLittleProximal
                {
                  OFFSET -0.6110054258835662 0.07380246363125398 -0.29175655876064077
                  CHANNELS 3 Yrotation Xrotation Zrotation
                  JOINT rightLittleIntermediate
                  {
                    OFFSET -0.3144281999999998 -2.5124724523095665e-9 1.8658118799974588e-7
                    CHANNELS 3 Yrotation Xrotation Zrotation
                    JOINT rightLittleDistal
                    {
                      OFFSET -0.18116185580251631 0.002815456192251098 0.0034826415518049436
                      CHANNELS 3 Yrotation Xrotation Zrotation
                      End Site
                      {
                        OFFSET -0.18116185580251631 0.002815456192251098 0.0034826415518049436
                      }
                    }
                  }
                }
                JOINT rightMiddleProximal
                {
                  OFFSET -0.6637478005691111 0.07380246480054087 0.02046981859247815
                  CHANNELS 3 Yrotation Xrotation Zrotation
                  JOINT rightMiddleIntermediate
                  {
                    OFFSET -0.3705733999999994 -2.9611069152224445e-9 9.35054791928458e-8
                    CHANNELS 3 Yrotation Xrotation Zrotation
                    JOINT rightMiddleDistal
                    {
                      OFFSET -0.22861063500000056 -1.82673876025774e-9 -1.6740782024515788e-7
                      CHANNELS 3 Yrotation Xrotation Zrotation
                      End Site
                      {
                        OFFSET -0.22861063500000056 -1.82673876025774e-9 -1.6740782024515788e-7
                      }
                    }
                  }
                }
                JOINT rightRingProximal
                {
                  OFFSET -0.6561845547265777 0.07380246406440083 -0.13588087571513918
                  CHANNELS 3 Yrotation Xrotation Zrotation
                  JOINT rightRingIntermediate
                  {
                    OFFSET -0.3437531000000005 -2.746796123886952e-9 1.4935781944558357e-7
                    CHANNELS 3 Yrotation Xrotation Zrotation
                    JOINT rightRingDistal
                    {
                      OFFSET -0.1983118991198174 -0.002467117924596085 -0.004538141969590015
                      CHANNELS 3 Yrotation Xrotation Zrotation
                      End Site
                      {
                        OFFSET -0.1983118991198174 -0.002467117924596085 -0.004538141969590015
                      }
                    }
                  }
                }
                JOINT rightThumbProximal
                {
                  OFFSET -0.09767004258864787 -0.14930060425447422 -0.07008212897521154
                  CHANNELS 3 Yrotation Xrotation Zrotation
                  JOINT rightThumbIntermediate
                  {
                    OFFSET -0.36682123028154767 -0.015768465060082004 0.28693641268151077
                    CHANNELS 3 Yrotation Xrotation Zrotation
                    JOINT rightThumbDistal
                    {
                      OFFSET -0.21091084272403915 -0.016756648201192714 0.1933767059105508
                      CHANNELS 3 Yrotation Xrotation Zrotation
                      End Site
                      {
                        OFFSET -0.21091084272403915 -0.016756648201192714 0.1933767059105508
                      }
                    }
                  }
                }
              }
            }
          }
        }
      }
    }
  }
  JOINT leftUpperLeg
  {
    OFFSET 0.7715603 -0.3993844658041501 0
    CHANNELS 3 Yrotation Xrotation Zrotation
    JOINT leftLowerLeg
    {
      OFFSET 0 -3.529830000249343 0
      CHANNELS 3 Yrotation Xrotation Zrotation
      JOINT leftFoot
      {
        OFFSET 0 -4.154939295409685 0.004208579085223096
        CHANNELS 3 Yrotation Xrotation Zrotation
        JOINT leftToes
        {
          OFFSET 0 -0.6353414391261847 1.10414981190622
          CHANNELS 3 Yrotation Xrotation Zrotation
          End Site
          {
            OFFSET 0 -0.6015820691747853 1.10414981190622
          }
        }
      }
    }
  }
  JOINT rightUpperLeg
  {
    OFFSET -0.7715603 -0.3993844658041501 0
    CHANNELS 3 Yrotation Xrotation Zrotation
    JOINT rightLowerLeg
    {
      OFFSET 0 -3.529830000249343 0
      CHANNELS 3 Yrotation Xrotation Zrotation
      JOINT rightFoot
      {
        OFFSET 0 -4.154939295409685 0.004208579085223096
        CHANNELS 3 Yrotation Xrotation Zrotation
        JOINT rightToes
        {
          OFFSET 0 -0.6353414391261847 1.10414981190622
          CHANNELS 3 Yrotation Xrotation Zrotation
          End Site
          {
            OFFSET 0 -0.6015820691747853 1.10414981190622
          }
        }
      }
    }
  }
}
MOTION
Frames: 4
Frame Time: 0.03333333333333333
-0.0751217319206758 8.103764273903586 1.3361280977513235 -7.657794403857439 8.147509768809535 -2.9716485113051285 1.0410987454556517 2.6214508298592114 0.7650411146319628 2.8566306934577717 8.158644528892443 0.6788437720359702 0 0 0 0.4404244352346517 -0.5466045849715748 1.2700307906448487 2.133111909964503 -28.823471451492065 1.438787730874054 0 0 0 0 0 0 3.628421229864431 0.6823551229174325 -11.199814338850837 1.2854492414422052 24.221772908468658 -58.81628530270475 -97.60466134297424 -0.00007608468803947464 0.00006212629793419203 -13.502049647024277 -25.67128602283915 -1.3414459397663934 3.0955383370577483 0.7314031372397859 -26.623755323615754 2.4646128958708875 0.4521795987495614 -20.772858142638874 1.239373951771183 0.1132608052213029 -10.388794496134052 6.946308003083893 2.6344422789825455 -26.000850122271032 -1.6437092028341969 0.5297585141921682 -21.281221300144175 1.235936712688312 0.14986698104102525 -10.388341630540172 3.095171921230315 0.7311927716227612 -26.60788103501 2.457347570777846 0.44993068927787233 -20.788872939255015 1.249352102487894 0.11358698741394814 -10.388800990422617 3.100726524147788 0.7339905497522069 -26.62369120953659 2.4530206361653013 0.4499542221396204 -20.772900039463828 1.2469525539389443 0.11349752776841927 -10.388791976796563 4.339230299698631 -1.3326221790418618 6.178079957355288 21.711765410373264 4.413194953194883 3.4119265211188887 8.184412868664891 -0.16610407000500357 3.1089362461957446 -0.819139926744568 0.47360537422972093 11.073177324755894 26.71380133039857 -6.626082064033259 50.2549839371578 90.46504558966164 0.0000019523675629985354 -0.000006570230884122106 10.953636336649758 -0.28898266035328063 -2.513829206281032 -3.147135846287953 0.7491762394153153 26.61961170285612 -2.4483824051102103 0.45029259374970315 20.769886150805508 -1.2692220975118058 0.1143674181120768 10.387305399976928 -3.077050039051545 0.7140231919949077 26.619910642400523 -2.390168496670025 0.3984998210553049 20.77089521222304 -1.3176495388536995 0.09647733473131023 10.387485953258285 -3.181739586083255 0.7665045577831128 26.619155223892562 -2.382193487031432 0.4398600454704318 20.770098501875626 -1.2960647247637611 0.11389598738169021 10.38731043867598 -3.1143215274750635 0.732739722260711 26.61993530676383 -2.5019130037989816 0.45667827358714164 20.769752034032592 -1.2716802354594527 0.11812831210550007 10.387264250595242 -4.335667842862247 -1.6146085165742552 -6.622454674732237 -22.301634860873442 5.107994179928922 -3.129024858627321 -6.37961023392966 -0.8952636675830161 -2.6359570235291363 5.832276991199834 -42.45306803710504 4.216913698443654 141.58543044305614 75.66679597580561 144.53242681721835 1.7090595946343272 -2.2740553446181644 11.416382026528678 0.0000012094332387031713 -0.718723103027315 -0.000012263530852754496 1.400740935562686 -19.51204376176775 5.839011005640813 -3.374428305337392 43.84744134780175 0.7145516989645565 1.7895399006458887 -32.6539358929817 -5.207563240714202 0.0000067932349890752904 -3.2585110600339053 4.866469582582354e-7
-0.06661247800696979 8.36431936784224 1.3341868015640093 -8.087555940366924 8.324998446943063 -2.0227636049739157 1.4070615885546465 2.6712747015116136 0.27907593045645834 5.10065012523654 7.980487359477493 -0.5781507461611056 0 0 0 0.01768404648828365 -0.042375798144836864 1.6670574597684809 -0.4693700508216418 -28.864096786826302 3.021590436943033 0 0 0 0 0 0 3.278691368388202 0.6947781597871312 -11.40316409579982 4.54840003486361 29.284170076341777 -55.85936139932874 -98.47175907585185 -0.00004572789619733632 0.0000833311530914482 -12.016498352955914 -27.85682724763141 -1.2442156904725832 3.0955383370577483 0.7314031372397859 -26.623755323615754 2.4646128958708875 0.4521795987495614 -20.772858142638874 1.239373951771183 0.1132608052213029 -10.388794496134052 6.946308003083893 2.6344422789825455 -26.000850122271032 -1.6437092028341969 0.5297585141921682 -21.281221300144175 1.235936712688312 0.14986698104102525 -10.388342470321811 3.095171921230315 0.7311927716227612 -26.60788103501 2.457347570777846 0.44993068927787233 -20.788872939255015 1.249352102487894 0.11358698741394814 -10.388800990422617 3.100726524147788 0.7339905497522069 -26.62369120953659 2.4530208494197048 0.4499542221396204 -20.772900039463828 1.2469525539389443 0.11349752776841927 -10.388791976796563 4.339230299698631 -1.3326221790418618 6.178079957355288 21.711765410373264 4.413194953194883 3.4119265211188887 8.184412868664891 -0.16610407000500357 3.1089362461957446 -2.0039557777285384 0.2622612901970484 10.86167768080468 30.538633891433186 -9.651163697285739 46.62109786713247 93.90504992199232 5.911562639806493e-7 -0.000011876292551223409 8.366685301711668 1.9226834207366252 -6.954961929933015 -3.147135846287953 0.7491762394153153 26.61961170285612 -2.4483824051102103 0.45029259374970315 20.769886150805508 -1.2692220975118058 0.1143674181120768 10.387305399976928 -3.077050039051545 0.7140231919949077 26.619910642400523 -2.390168496670025 0.3984998210553049 20.77089521222304 -1.3176495388536995 0.09647733473131023 10.387485953258285 -3.181739586083255 0.7665045577831128 26.619155223892562 -2.382193487031432 0.4398600454704318 20.770098501875626 -1.2960647247637611 0.11389598738169021 10.38731043867598 -3.1143215274750635 0.732739722260711 26.61993530676383 -2.5019130037989816 0.45667827358714164 20.769752034032592 -1.2716802354594527 0.11812831210550007 10.387264250595242 -4.335667842862247 -1.6146085165742552 -6.622454674732237 -22.301634860873442 5.107994179928922 -3.129024858627321 -6.37961023392966 -0.8952636675830161 -2.6359570235291363 5.634571472498202 -44.56932883560461 1.929334376739577 93.2301195529132 81.00249711739521 95.24212641615709 2.1771557431689486 -3.4104938109604275 10.564787379795765 0.00001094534783221416 -0.8477157272410238 -0.0000041062004256597335 1.5618674772570351 -11.92244608201213 4.326198629290073 -3.1595282250817203 34.69226362414977 0.5694659974162867 1.311445383481949 -23.90121246832095 -4.40593452920615 0.000004131247954438497 -10.477435004572312 -0.0000035793457440550212
-0.06171780553731051 8.640534661032936 1.3500036120201986 -8.227623558174074 8.56054952130134 -1.0211338949251147 1.6667053168893438 2.54311929860283 -0.15426330007905553 6.778662301557372 7.687489134349546 -1.753294534338176 0 0 0 -0.35445709826870575 0.5012865182725718 2.0431148283741765 -2.7368992420444913 -28.881416114392636 4.344675335799498 0 0 0 0 0 0 2.7585871468827428 0.6988086429711055 -11.499667637701753 8.584455340185063 33.49123211034867 -52.451949029830885 -99.50074983952166 -0.000038755843500086914 0.00006919096349842248 -10.616653601577653 -30.18552986692796 -1.1632927092294643 3.0955383370577483 0.7314031372397859 -26.623755323615754 2.4646128958708875 0.4521795987495614 -20.772858142638874 1.239373951771183 0.1132608052213029 -10.388794496134052 6.946308003083893 2.6344422789825455 -26.000850122271032 -1.6437092028341969 0.5297585141921682 -21.281221300144175 1.235936712688312 0.14986698104102525 -10.388342470321811 3.095171921230315 0.7311927716227612 -26.60788103501 2.457347570777846 0.44993068927787233 -20.788872939255015 1.249352102487894 0.11358698741394814 -10.388800990422617 3.100726524147788 0.7339905497522069 -26.62369120953659 2.4530208494197048 0.4499542221396204 -20.772900039463828 1.2469525539389443 0.11349752776841927 -10.388791976796563 4.339230299698631 -1.3326221790418618 6.178079957355288 21.711765410373264 4.413194953194883 3.4119265211188887 8.184412868664891 -0.16610407000500357 3.1089362461957446 -3.076930019879707 0.060506022411062385 10.781068251843278 34.6143766480051 -11.28685856043225 42.88636904614205 96.59949603270252 0.0000015586144863223526 0.000010144796547079738 8.0276578632323 2.5717757252784095 -10.869557100392301 -3.147135846287953 0.7491762394153153 26.61961170285612 -2.4483824051102103 0.45029259374970315 20.769886150805508 -1.2692220975118058 0.1143674181120768 10.387305399976928 -3.077050039051545 0.7140231919949077 26.619910642400523 -2.390168496670025 0.3984998210553049 20.77089521222304 -1.3176495388536995 0.09647733473131023 10.387485953258285 -3.181739586083255 0.7665045577831128 26.619156750584132 -2.382193487031432 0.4398600454704318 20.770098501875626 -1.2960647247637611 0.11389598738169021 10.38731043867598 -3.1143215274750635 0.732739722260711 26.61993530676383 -2.5019130037989816 0.45667827358714164 20.769752034032592 -1.2716802354594527 0.11812831210550007 10.387264250595242 -4.335667842862247 -1.6146085165742552 -6.622454674732237 -22.301634860873442 5.107994179928922 -3.129024858627321 -6.379610658224795 -0.8952636675830161 -2.6359570235291363 5.209288802439646 -45.87222631758134 -0.15722588317482428 37.403049454746494 74.69320483288074 38.33508627436279 2.489752112874726 -3.8094022700445844 8.973668382447528 -0.000003831099759351022 -1.0452757469740492 0.0000027776507387551544 1.5175564112790607 -4.663541976162798 3.353991765814284 -1.704142823081028 24.755415847904683 0.7848081499143179 0.5429731081406509 -8.010158399371521 -3.0727499354540724 0.07728224558785332 -20.398775642857036 -0.5472928007320372
-0.058679573915221474 8.903007507324217 1.3591769294092533 -7.865412127939181 8.577237539741912 -0.0918858774103128 1.7750644467746135 2.3783354006516504 -0.6605614925900782 7.738427365806529 7.623835572094179 -2.741634539278269 0 0 0 -0.6601087704695205 1.1418252605858095 2.445762237988372 -4.5062211792106 -28.888725339211824 5.222395067472563 0 0 0 0 0 0 2.15515914533152 0.6974045613496683 -11.502052263194363 12.9616633717762 36.4031150437653 -48.971432598734346 -100.78401339026536 -0.000051549208944169947 0.00009875991739166239 -9.405794620798769 -32.160710017679 -1.1777838663304727 3.0955383370577483 0.7314031372397859 -26.623755323615754 2.4646128958708875 0.4521795987495614 -20.772858142638874 1.239373951771183 0.1132608052213029 -10.388794496134052 6.946308003083893 2.6344422789825455 -26.000850122271032 -1.6437092028341969 0.5297585141921682 -21.281221300144175 1.2359368193855567 0.14986698104102525 -10.388342470321811 3.095171921230315 0.7311927716227612 -26.60788103501 2.457347570777846 0.44993068927787233 -20.788872939255015 1.249352102487894 0.11358698741394814 -10.388800990422617 3.100726524147788 0.7339905497522069 -26.623692736156272 2.4530208494197048 0.4499542221396204 -20.772900039463828 1.2469525539389443 0.11349752776841927 -10.388791976796563 4.339230299698631 -1.3326221790418618 6.178079957355288 21.711765410373264 4.413194953194883 3.4119265211188887 8.184412868664891 -0.16610407000500357 3.1089362461957446 -3.8933221516429746 -0.09630160385385292 10.847423012675831 38.29952203688784 -11.162111245837432 39.440537757275564 99.0195194497411 0.000012073024870490283 -0.000005803939284939486 10.058120827729043 1.7532404712032588 -14.118759145768673 -3.147135846287953 0.7491762394153153 26.6196132295355 -2.4483824051102103 0.45029259374970315 20.769886150805508 -1.2692220975118058 0.1143674181120768 10.387305399976928 -3.077050039051545 0.7140231919949077 26.619910642400523 -2.390168496670025 0.3984998210553049 20.77089521222304 -1.3176495388536995 0.09647733473131023 10.387485953258285 -3.181739586083255 0.7665045577831128 26.619156750584132 -2.382193487031432 0.4398600454704318 20.770098501875626 -1.2960647247637611 0.11389598738169021 10.38731043867598 -3.1143215274750635 0.732739722260711 26.61993530676383 -2.5019130037989816 0.45667827358714164 20.769752034032592 -1.2716802354594527 0.11812831210550007 10.387264250595242 -4.335667842862247 -1.6146085165742552 -6.622454674732237 -22.301634860873442 5.107994179928922 -3.129024858627321 -6.379610658224795 -0.8952636675830161 -2.6359570235291363 4.879504765280979 -44.82821849075073 -1.9122970963311874 19.485938584342048 60.70923685418844 19.03018402453368 2.609531998830812 -4.042641515026144 6.412979342693834 -0.000005428683758359006 -1.0620197987332232 -0.00000693151126200681 1.3815549956910385 1.1302849883591952 2.3910089070129468 -3.0359523252232337 18.85001299550042 -0.020879804234747536 0.1548114342978807 2.977001938766351 -0.3064784785946359 0.0906606145347933 -17.412437096134397 -1.8560585682248743
